<svg width="25" height="25" viewBox="0 0 25 25" fill="none" xmlns="http://www.w3.org/2000/svg">
<path fill-rule="evenodd" clip-rule="evenodd" d="M12.5002 25.0003C19.4039 25.0003 25.0003 19.4038 25.0003 12.5003C25.0003 5.59646 19.4039 0 12.5002 0C5.59661 0 0 5.59646 0 12.5003C0 19.4038 5.59661 25.0003 12.5002 25.0003Z" fill="#ADB8FA" fill-opacity="0.9"/>
<path fill-rule="evenodd" clip-rule="evenodd" d="M13.1167 6C9.32099 6 6.2334 8.86717 6.2334 12.3917C6.2334 13.5067 6.5474 14.6022 7.14263 15.5657L6.01189 18.7149C5.98493 18.7905 6.00458 18.8735 6.06305 18.9315C6.1079 18.9759 6.1699 19 6.2334 19C6.25331 19 6.27296 18.9976 6.29287 18.9928L9.9951 18.0883C10.9568 18.5433 12.0341 18.7834 13.1167 18.7834C16.9124 18.7834 20 15.9162 20 12.3917C20 8.86717 16.9124 6 13.1167 6ZM9.96662 13.3667C9.45203 13.3667 9.03345 12.978 9.03345 12.5C9.03345 12.022 9.45203 11.6334 9.96662 11.6334C10.4815 11.6334 10.9 12.022 10.9 12.5C10.9 12.978 10.4815 13.3667 9.96662 13.3667ZM13 13.3667C12.4854 13.3667 12.0666 12.978 12.0666 12.5C12.0666 12.022 12.4854 11.6334 13 11.6334C13.5146 11.6334 13.9335 12.022 13.9335 12.5C13.9335 12.978 13.5146 13.3667 13 13.3667ZM16.033 13.364C15.5181 13.364 15.0995 12.9754 15.0995 12.4974C15.0995 12.0194 15.5181 11.6307 16.033 11.6307C16.5478 11.6307 16.9662 12.0194 16.9662 12.4974C16.9662 12.9754 16.5478 13.364 16.033 13.364Z" fill="white"/>
</svg>
