<svg width="26" height="26" viewBox="0 0 26 26" fill="none" xmlns="http://www.w3.org/2000/svg">
<path fill-rule="evenodd" clip-rule="evenodd" d="M12.5431 25.4766C19.4466 25.4766 25.043 19.88 25.043 12.9766C25.043 6.07296 19.4466 0.476562 12.5431 0.476562C5.63951 0.476562 0.0429688 6.07296 0.0429688 12.9766C0.0429688 19.88 5.63951 25.4766 12.5431 25.4766Z" fill="#ADB8FA" fill-opacity="0.9"/>
<path d="M6 10.7284C6 9.77384 6.77384 9 7.72842 9H17.2716C18.2262 9 19 9.77384 19 10.7284V11H6V10.7284Z" fill="white" fill-opacity="0.9"/>
<path d="M6 13H19V16.2716C19 17.2262 18.2262 18 17.2716 18H7.72842C6.77384 18 6 17.2262 6 16.2716V13Z" fill="white" fill-opacity="0.9"/>
</svg>
