<svg width="25" height="25" viewBox="0 0 25 25" fill="none" xmlns="http://www.w3.org/2000/svg">
<path fill-rule="evenodd" clip-rule="evenodd" d="M12.5002 25.0004C19.4039 25.0004 25.0003 19.4036 25.0003 12.5002C25.0003 5.59649 19.4039 0 12.5002 0C5.59661 0 -2.50003e-05 5.59649 -2.50003e-05 12.5002C-2.50003e-05 19.4036 5.59661 25.0004 12.5002 25.0004Z" fill="#ADB8FA" fill-opacity="0.9"/>
<path fill-rule="evenodd" clip-rule="evenodd" d="M12.4949 5.82422C8.82808 5.82422 5.82812 8.82431 5.82812 12.4911C5.82812 16.1578 8.82808 19.1577 12.4949 19.1577C16.1614 19.1577 19.1614 16.1578 19.1614 12.4911C19.1614 8.82431 16.1614 5.82422 12.4949 5.82422ZM13.1612 17.1577H11.8283V15.8242H13.1612V17.1577ZM14.5615 12.0245L13.9615 12.6242C13.4282 13.0908 13.1612 13.491 13.1612 14.4909H11.8283V14.1578C11.8283 13.4246 12.0948 12.7577 12.628 12.2912L13.4282 11.4244C13.6947 11.2243 13.8278 10.8911 13.8278 10.4909C13.8278 9.75758 13.2283 9.15748 12.4949 9.15748C11.7615 9.15748 11.1614 9.75758 11.1614 10.4909H9.82824C9.82824 9.02422 11.0281 7.82439 12.4949 7.82439C13.9615 7.82439 15.1616 9.02422 15.1616 10.4909C15.1616 11.091 14.8948 11.6243 14.5615 12.0245Z" fill="white" fill-opacity="0.9"/>
</svg>
