<svg width="120" height="226" viewBox="0 0 120 226" fill="none" xmlns="http://www.w3.org/2000/svg">
<path d="M10.117 0.00771888C10.115 0.0049772 10.4954 -0.00108278 10.4922 0.00787026C10.4922 0.00787026 102.95 0.00673022 109.184 0C115.418 -0.00673022 119.839 2.51446 119.748 10.2687L119.751 194.864L10.119 0.0112063L10.117 0.00771888Z" fill="#7081FF"/>
<path d="M119.756 207.027L119.748 10.2687L119.751 194.864L10.119 0.0112063C3.23907 0.13536 0.000128159 3.72392 0 10.6229V207.264C0 214.238 3.10768 217.947 10.6 217.947H53.2868L57.8665 224.565C57.9993 224.757 58.1478 224.939 58.3172 225.099C59.5824 226.299 60.2781 226.3 61.5459 225.103C61.7149 224.943 61.8631 224.763 61.9958 224.572L66.6066 217.947H109.184C116.256 217.894 119.756 213.996 119.756 207.027Z" fill="#A4AFFF"/>
</svg>
