<svg width="7" height="10" viewBox="0 0 7 10" fill="none" xmlns="http://www.w3.org/2000/svg">
<path d="M3.15624 0C1.41587 0 0 1.41608 0 3.15649C0 4.83179 2.86371 8.74589 2.98565 8.91163L3.09944 9.06651C3.11275 9.08471 3.13394 9.09535 3.15624 9.09535C3.17888 9.09535 3.19993 9.08471 3.21338 9.06651L3.32711 8.91163C3.44911 8.74589 6.31276 4.83179 6.31276 3.15649C6.31276 1.41608 4.89666 0 3.15624 0ZM3.15624 2.02584C3.77982 2.02584 4.28689 2.53294 4.28689 3.15649C4.28689 3.77973 3.7798 4.28714 3.15624 4.28714C2.53303 4.28714 2.02559 3.77973 2.02559 3.15649C2.02559 2.53294 2.533 2.02584 3.15624 2.02584Z" fill="white"/>
</svg>
