<svg width="85" height="85" viewBox="0 0 85 85" fill="none" xmlns="http://www.w3.org/2000/svg">
<path fill-rule="evenodd" clip-rule="evenodd" d="M42.6684 84.8328C66.0362 84.8328 84.9796 65.8897 84.9796 42.5219C84.9796 19.1541 66.0362 0.210938 42.6684 0.210938C19.3007 0.210938 0.357422 19.1541 0.357422 42.5219C0.357422 65.8897 19.3007 84.8328 42.6684 84.8328Z" fill="white"/>
<path fill-rule="evenodd" clip-rule="evenodd" d="M42.9931 78.9717C62.9454 78.9717 79.1199 62.7971 79.1199 42.8448C79.1199 22.8926 62.9454 6.71803 42.9931 6.71803C23.0409 6.71803 6.86632 22.8926 6.86632 42.8448C6.86632 62.7971 23.0409 78.9717 42.9931 78.9717Z" fill="#AEB8FF"/>
<g filter="url(#filter0_d_496_21679)">
<path fill-rule="evenodd" clip-rule="evenodd" d="M30.0628 17.8054C19.6409 18.0283 11.1109 26.4662 10.7816 36.8849C10.6179 42.061 12.4496 46.8069 15.5652 50.4128C16.9684 52.0363 17.3689 54.299 16.647 56.3199L15.3495 59.9527C14.9276 61.1344 16.2959 62.1444 17.3008 61.3929L21.9026 57.9512C23.272 56.9271 25.0108 56.5463 26.6882 56.8767C28.4353 57.221 30.2645 57.3345 32.1459 57.1792C42.0437 56.3599 49.8495 48.1744 50.2052 38.2491C50.6128 26.8809 41.3951 17.5628 30.0628 17.8054Z" fill="#5468FF"/>
<path fill-rule="evenodd" clip-rule="evenodd" d="M27.6572 50.1942C27.312 51.7843 25.6515 52.8857 24.0615 52.5406C22.3548 52.1702 21.378 50.4962 21.7232 48.9061C22.0767 47.2771 23.6514 46.1975 25.3577 46.568C26.948 46.9131 28.0107 48.5652 27.6572 50.1942ZM28.5199 42.6651C28.2587 43.8676 26.8305 44.0856 25.8999 43.8835C24.6585 43.6141 23.7209 42.8826 23.982 41.6803C24.9838 37.0647 25.8804 30.3148 26.8823 25.6992C27.2106 24.1867 28.637 23.6028 30.227 23.948C31.7396 24.2763 32.8344 25.4073 32.5059 26.9199C31.504 31.5354 29.5216 38.0497 28.5199 42.6651Z" fill="white"/>
<path fill-rule="evenodd" clip-rule="evenodd" d="M71.0502 57.4925C69.3809 59.5066 68.8517 62.2287 69.7305 64.6912L70.3542 66.4387C69.5668 67.3514 68.7336 68.2244 67.8591 69.0546L63.984 66.1599C62.3486 64.9406 60.2814 64.457 58.2759 64.8298C56.9827 65.0718 55.5346 65.2857 54.4833 65.2857C42.6057 65.2857 32.9783 55.6583 32.9783 43.7805C32.9767 31.9147 42.6159 22.2754 54.4833 22.2754C66.3594 22.2754 75.9882 31.9028 75.9882 43.7805C75.9886 48.9915 74.1337 53.7708 71.0502 57.4925Z" fill="white"/>
<path fill-rule="evenodd" clip-rule="evenodd" d="M58.6164 44.565C56.6147 46.1299 56.5781 47.2221 56.5781 49.1148C56.5781 49.8066 56.2139 50.607 54.4303 50.607C52.9384 50.607 52.4286 50.0611 52.4286 48.1683C52.4286 45.0379 53.8119 43.5456 54.8674 42.6356C56.0687 41.6166 58.1069 40.488 58.1069 38.5226C58.1069 36.8482 56.651 36.0473 54.8309 36.0473C51.1184 36.0473 51.9189 38.8501 49.9535 38.8501C48.9706 38.8501 47.7695 38.1951 47.7695 36.7751C47.7695 34.8099 50.0264 31.8977 54.9403 31.8977C59.5994 31.8977 62.6933 34.4821 62.6933 37.9037C62.6933 41.3251 59.5994 43.8004 58.6164 44.565ZM57.2699 55.9215C57.2699 57.4137 56.0319 58.7242 54.467 58.7242C52.9019 58.7242 51.7006 57.4137 51.7006 55.9215C51.7006 54.3928 52.9384 53.1188 54.467 53.1188C55.9956 53.1188 57.2699 54.3928 57.2699 55.9215Z" fill="#00D9CD"/>
</g>
<defs>
<filter id="filter0_d_496_21679" x="2.30928" y="13.8951" width="82.1412" height="68.1783" filterUnits="userSpaceOnUse" color-interpolation-filters="sRGB">
<feFlood flood-opacity="0" result="BackgroundImageFix"/>
<feColorMatrix in="SourceAlpha" type="matrix" values="0 0 0 0 0 0 0 0 0 0 0 0 0 0 0 0 0 0 127 0" result="hardAlpha"/>
<feOffset dy="4.55657"/>
<feGaussianBlur stdDeviation="4.2311"/>
<feColorMatrix type="matrix" values="0 0 0 0 0.239216 0 0 0 0 0.337255 0 0 0 0 0.941176 0 0 0 0.53 0"/>
<feBlend mode="normal" in2="BackgroundImageFix" result="effect1_dropShadow_496_21679"/>
<feBlend mode="normal" in="SourceGraphic" in2="effect1_dropShadow_496_21679" result="shape"/>
</filter>
</defs>
</svg>
