<svg width="25" height="25" viewBox="0 0 25 25" fill="none" xmlns="http://www.w3.org/2000/svg">
<path fill-rule="evenodd" clip-rule="evenodd" d="M12.5002 25.0004C19.4039 25.0004 25.0003 19.4036 25.0003 12.5002C25.0003 5.59649 19.4039 0 12.5002 0C5.59661 0 -2.50003e-05 5.59649 -2.50003e-05 12.5002C-2.50003e-05 19.4036 5.59661 25.0004 12.5002 25.0004Z" fill="#ADB8FA" fill-opacity="0.9"/>
<path d="M17.522 11.2768H15.0249H10.0308V9.64709C10.0308 8.42481 10.9672 7.31893 12.2781 7.20252C13.7764 7.08612 15.0249 8.19199 15.0249 9.53068C15.0249 9.87991 15.2746 10.1127 15.6492 10.1127H16.2735C16.648 10.1127 16.8977 9.87991 16.8977 9.53068C16.8977 7.31893 15.0249 5.51461 12.6527 5.45641C10.218 5.3982 8.15796 7.26073 8.15796 9.53068V11.2768H7.53369C6.847 11.2768 6.28516 11.8006 6.28516 12.4409V16.5152C6.28516 18.1449 7.65855 19.4254 9.4065 19.4254H15.6492C17.3971 19.4254 18.7705 18.1449 18.7705 16.5152V12.4409C18.7705 11.8006 18.2087 11.2768 17.522 11.2768ZM13.1521 15.7585V16.5152C13.1521 16.8062 12.84 17.0972 12.5278 17.0972C12.2157 17.0972 11.9036 16.8062 11.9036 16.5152V15.7585C11.529 15.5839 11.2793 15.1765 11.2793 14.769C11.2793 14.1288 11.8411 13.605 12.5278 13.605C13.2145 13.605 13.7764 14.1288 13.7764 14.769C13.7764 15.1765 13.5267 15.5839 13.1521 15.7585Z" fill="white" fill-opacity="0.9"/>
</svg>
