<svg width="25" height="26" viewBox="0 0 25 26" fill="none" xmlns="http://www.w3.org/2000/svg">
<path fill-rule="evenodd" clip-rule="evenodd" d="M12.5002 25.0784C19.4039 25.0784 25.0003 19.4819 25.0003 12.5782C25.0003 5.67446 19.4039 0.07825 12.5002 0.07825C5.59661 0.07825 -2.50003e-05 5.67446 -2.50003e-05 12.5782C-2.50003e-05 19.4819 5.59661 25.0784 12.5002 25.0784Z" fill="#ADB8FA" fill-opacity="0.9"/>
<path fill-rule="evenodd" clip-rule="evenodd" d="M12.9094 5.83984L12.573 5.99935L6.37521 8.60245L5.82617 8.83266V9.38154C5.82617 12.3214 7.01247 14.9067 8.42933 16.8017C9.1375 17.7401 9.89921 18.5192 10.6428 19.0682C11.3864 19.6173 12.1127 20.0068 12.9094 20.0068C13.7239 20.0068 14.4326 19.6173 15.1764 19.0682C15.9198 18.5192 16.6815 17.7401 17.3897 16.8017C18.8065 14.9067 19.9928 12.3214 19.9928 9.38154V8.83266L19.4438 8.60245L13.2462 5.99935L12.9094 5.83984ZM12.9094 7.77002V18.2361C12.839 18.2361 12.3249 18.1117 11.7409 17.6871C11.1564 17.2619 10.4834 16.5713 9.86351 15.7566C8.73024 14.2514 7.84483 12.1617 7.70305 9.94813L12.9094 7.78791V7.77002Z" fill="white" fill-opacity="0.9"/>
</svg>
