<svg width="100" height="100" viewBox="0 0 100 100" fill="none" xmlns="http://www.w3.org/2000/svg">
<circle cx="50" cy="50" r="50" fill="white"/>
<path d="M50.2189 2C37.6457 2.07518 25.6149 7.18491 16.7637 16.2091C7.91248 25.2333 2.96301 37.4357 3.00021 50.1416C3.03741 62.8474 8.05825 75.02 16.9622 83.9912C25.8661 92.9623 37.9266 98 50.5 98C63.0734 98 75.1339 92.9623 84.0378 83.9912C92.9418 75.02 97.9626 62.8474 97.9998 50.1416C98.037 37.4357 93.0875 25.2333 84.2363 16.2091C75.3851 7.18491 63.3543 2.07518 50.7811 2H50.2189ZM50.2189 26.4263C55.8594 26.5013 61.2415 28.8278 65.1907 32.8981C69.1398 36.9685 71.3355 42.4521 71.2984 48.1524C71.2612 53.8526 68.9944 59.3066 64.9926 63.3241C60.9907 67.3416 55.5788 69.5964 49.9379 69.5964C44.2969 69.5964 38.885 67.3416 34.8832 63.3241C30.8813 59.3066 28.6145 53.8526 28.5774 48.1524C28.5403 42.4521 30.7359 36.9685 34.6851 32.8981C38.6343 28.8278 44.0164 26.5013 49.6568 26.4263H50.2189ZM18.7396 83.3735C23.7988 76.7462 30.0759 73.4326 37.571 73.4326H63.429C70.9241 73.4326 77.2012 76.7462 82.2604 83.3735C73.6924 91.6051 62.3222 96.1953 50.5 96.1953C38.6778 96.1953 27.3076 91.6051 18.7396 83.3735Z" fill="#6476FF" fill-opacity="0.88"/>
</svg>
