<svg width="90" height="90" viewBox="0 0 90 90" fill="none" xmlns="http://www.w3.org/2000/svg">
<path d="M55.9068 39.3774C59.1864 39.3774 61.8559 42.2745 61.8559 45.8577V61.0292C61.8559 64.6125 59.1864 67.5095 55.9068 67.5095H34.0932C30.8136 67.5095 28.1441 64.6125 28.1441 61.0292V45.8958C28.1441 42.3126 30.8136 39.4155 34.0932 39.4155H39.3559H50.6059H55.9068V39.3774ZM44.9619 45.0191C41.8729 45.0191 39.3178 47.4206 39.3178 50.3939C39.3178 52.3761 40.8432 53.9009 42.5212 54.8158V61.7916H47.3263V54.8158C49.0042 53.8628 50.5297 52.3761 50.5297 50.3939C50.5678 47.4587 48.0508 45.0191 44.9619 45.0191ZM45 28.1703C39.6992 28.1703 39.3941 32.6302 39.3559 33.8119V39.4155H33.7119V34.3075C33.7119 34.3075 33.7119 22.4905 44.9619 22.4905C56.2119 22.4905 56.2119 34.3075 56.2119 34.3075V39.3774H50.6059V33.7738C50.6059 32.6302 50.3008 28.1703 45 28.1703ZM45 90C20.1356 90 0 69.8729 0 45.0191C0 20.2033 20.1356 0.0381196 45 0.0381196C53.0085 0.0381196 60.5212 2.13469 67.0424 5.79416L71.2373 0L78.7119 19.6696L59.072 16.7726L63.6864 10.4066C58.1186 7.39517 51.75 5.6798 45 5.6798C23.2627 5.6798 5.60593 23.291 5.60593 45.0191C5.60593 66.7471 23.2246 84.3583 45 84.3583C66.7373 84.3583 84.3941 66.7471 84.3941 45.0191C84.3941 39.7205 83.3263 34.6506 81.4195 30.0381L86.6059 27.9034C88.7797 33.1639 90 38.9581 90 45.0191C90 69.8729 69.8263 90 45 90Z" fill="#5468FF"/>
</svg>
