<svg width="23" height="23" viewBox="0 0 23 23" fill="none" xmlns="http://www.w3.org/2000/svg">
<path d="M0 5C0 2.23858 2.23858 0 5 0H18C20.7614 0 23 2.23858 23 5V18C23 20.7614 20.7614 23 18 23H5C2.23858 23 0 20.7614 0 18V5Z" fill="#15F0E4"/>
<path fill-rule="evenodd" clip-rule="evenodd" d="M15.0066 7.13686L10.6288 11.5151L9.35303 10.2865L9.32947 10.2627C8.71531 9.6487 7.72261 9.6487 7.10906 10.2627C6.4949 10.8769 6.4949 11.8692 7.10906 12.4834L7.13263 12.5068L9.49472 14.8693C10.0957 15.4965 11.0774 15.5067 11.6919 14.8925L11.7151 14.8693L17.227 9.35713L17.2386 9.34565C17.8595 8.72508 17.854 7.72723 17.227 7.11326L17.2154 7.10177C16.5945 6.49439 15.6076 6.50991 15.0066 7.13686Z" fill="white"/>
</svg>
