<svg width="23" height="23" viewBox="0 0 23 23" fill="none" xmlns="http://www.w3.org/2000/svg">
<path d="M0 5C0 2.23858 2.23858 0 5 0H18C20.7614 0 23 2.23858 23 5V18C23 20.7614 20.7614 23 18 23H5C2.23858 23 0 20.7614 0 18V5Z" fill="#FF0000"/>
<path d="M11.5073 18.2749C11.5048 18.2749 11.5015 18.2745 11.4989 18.2745C11.496 18.2745 11.4935 18.2749 11.4906 18.2749C10.6326 18.2749 9.93696 17.5797 9.93696 16.7213C9.93696 15.8638 10.6326 15.1686 11.4906 15.1686H11.4989H11.5073C12.3648 15.1686 13.0613 15.8638 13.0613 16.7213C13.0613 17.5793 12.3661 18.2749 11.5073 18.2749Z" fill="white"/>
<path d="M13.7352 6.43614C13.6337 7.98638 12.9251 12.5968 12.9251 12.5968C12.9251 13.3743 12.2881 14.0041 11.5107 14.0041H11.4985H11.4864C10.7094 14.0041 10.0724 13.3734 10.0724 12.5968C10.0724 12.5968 9.36416 7.98638 9.26268 6.43614C9.21237 5.65997 9.80697 4.21875 11.4868 4.21875C11.491 4.21875 11.4952 4.21917 11.4989 4.21917C11.5027 4.21917 11.5069 4.21875 11.5111 4.21875C13.1905 4.21875 13.7859 5.65997 13.7352 6.43614Z" fill="white"/>
</svg>
