<svg width="11" height="11" viewBox="0 0 11 11" fill="none" xmlns="http://www.w3.org/2000/svg">
<path d="M3.50987 10.1171H8.09576V3.45906V2.13425C8.09576 1.81892 7.97497 1.51651 7.75996 1.29354C7.54496 1.07057 7.25335 0.945313 6.94929 0.945312H4.65634C4.35228 0.945313 4.06067 1.07057 3.84566 1.29354C3.63066 1.51651 3.50987 1.81892 3.50987 2.13425V3.45906V10.1171ZM4.42704 2.13425C4.42704 2.10302 4.43298 2.0721 4.4445 2.04325C4.45602 2.0144 4.47291 1.98819 4.4942 1.96611C4.5155 1.94403 4.54077 1.92651 4.56859 1.91456C4.59641 1.90261 4.62623 1.89646 4.65634 1.89646H6.94929C6.9794 1.89646 7.00921 1.90261 7.03703 1.91456C7.06485 1.92651 7.09013 1.94403 7.11142 1.96611C7.13271 1.98819 7.1496 2.0144 7.16113 2.04325C7.17265 2.0721 7.17858 2.10302 7.17858 2.13425V3.45906H4.42704V2.13425ZM9.62439 3.45906V10.1171C9.98927 10.1171 10.3392 9.96678 10.5972 9.69922C10.8552 9.43166 11.0002 9.06876 11.0002 8.69037V4.88578C11.0002 4.50739 10.8552 4.1445 10.5972 3.87694C10.3392 3.60938 9.98927 3.45906 9.62439 3.45906ZM1.98124 3.45906C1.61636 3.45906 1.26643 3.60938 1.00842 3.87694C0.750415 4.1445 0.605469 4.50739 0.605469 4.88578V8.69037C0.605469 9.06876 0.750415 9.43166 1.00842 9.69922C1.26643 9.96678 1.61636 10.1171 1.98124 10.1171V3.45906Z" fill="white"/>
</svg>
