<svg width="32" height="24" viewBox="0 0 32 24" fill="none" xmlns="http://www.w3.org/2000/svg">
<g id="visa 1" clip-path="url(#clip0_2762_2182)">
<path id="Vector" d="M1.64103 0H30.359C31.2653 0 32 0.859632 32 1.92V22.08C32 23.1404 31.2653 24 30.359 24H1.64103C0.734728 24 0 23.1404 0 22.08V1.92C0 0.859632 0.734728 0 1.64103 0Z" fill="#0E4595"/>
<path id="Vector_2" d="M12.0292 16.739L13.3979 7.34249H15.587L14.2174 16.739H12.0292ZM22.1261 7.54505C21.6924 7.35468 21.0127 7.15039 20.1641 7.15039C18.0011 7.15039 16.4774 8.42479 16.4644 10.2513C16.4522 11.6016 17.5522 12.3548 18.3825 12.8043C19.2346 13.2648 19.521 13.5585 19.517 13.9698C19.5116 14.5997 18.8365 14.8874 18.2074 14.8874C17.3312 14.8874 16.8657 14.745 16.1468 14.3942L15.8647 14.2449L15.5574 16.3484C16.0687 16.6107 17.0143 16.8379 17.9959 16.8497C20.2971 16.8497 21.7908 15.5898 21.8079 13.6393C21.816 12.5704 21.2328 11.757 19.9699 11.0863C19.2047 10.6517 18.7362 10.3615 18.7411 9.92143C18.7411 9.53085 19.1378 9.11316 19.9947 9.11316C20.7106 9.1002 21.2292 9.28284 21.6332 9.47316L21.8294 9.58164L22.1261 7.54505ZM27.7593 7.34234H26.0677C25.5437 7.34234 25.1515 7.50972 24.9214 8.12157L21.6704 16.7328H23.9691C23.9691 16.7328 24.3449 15.5749 24.4299 15.3207C24.6812 15.3207 26.9142 15.3247 27.2335 15.3247C27.299 15.6537 27.4998 16.7328 27.4998 16.7328H29.5311L27.7593 7.34205V7.34234ZM25.0755 13.41C25.2565 12.8686 25.9477 10.7833 25.9477 10.7833C25.9347 10.8084 26.1273 10.2393 26.2379 9.88649L26.3858 10.6967C26.3858 10.6967 26.805 12.9397 26.8926 13.41H25.0755ZM10.1709 7.34234L8.02768 13.7503L7.79929 12.4481C7.40032 10.947 6.15724 9.32066 4.76758 8.50644L6.72721 16.724L9.04335 16.721L12.4897 7.34225H10.1709" fill="white"/>
<path id="Vector_3" d="M6.02658 7.34199H2.49669L2.46875 7.53749C5.21492 8.31529 7.03203 10.1949 7.78649 12.4532L7.0189 8.13509C6.88639 7.54013 6.5021 7.36258 6.02666 7.3418" fill="#F2AE14"/>
</g>
<defs>
<clipPath id="clip0_2762_2182">
<rect width="32" height="24" fill="white"/>
</clipPath>
</defs>
</svg>
