<svg width="12" height="12" viewBox="0 0 12 12" fill="none" xmlns="http://www.w3.org/2000/svg">
<path fill-rule="evenodd" clip-rule="evenodd" d="M2.44851 1.04998C2.03415 0.635612 1.39809 0.59996 1.02778 0.970262C0.65749 1.34056 0.693279 1.97648 1.10764 2.39085L4.55859 5.8418L0.949569 9.45082C0.534694 9.8657 0.500562 10.5025 0.873474 10.8754C1.24638 11.2483 1.8832 11.2142 2.29808 10.7993L5.9071 7.19031L9.50669 10.7899C9.92105 11.2043 10.557 11.2401 10.9273 10.8698C11.2976 10.4995 11.2619 9.86338 10.8476 9.44902L7.24797 5.84944L10.697 2.40038C11.1118 1.98565 11.1459 1.34884 10.773 0.975933C10.4001 0.60302 9.76325 0.637143 9.34853 1.05186L5.89946 4.50093L2.44851 1.04998Z" fill="white" fill-opacity="0.8"/>
</svg>
